<?xml version="1.0" encoding="utf-8"?>
<!-- Generator: Adobe Illustrator 21.1.0, SVG Export Plug-In . SVG Version: 6.00 Build 0)  -->
<svg version="1.1" xmlns="http://www.w3.org/2000/svg" xmlns:xlink="http://www.w3.org/1999/xlink" x="0px" y="0px"
	 viewBox="0 0 658.6 638.1" style="enable-background:new 0 0 658.6 638.1;" xml:space="preserve">
<style type="text/css">
	.st0{font-family:'MyriadPro-Regular';}
	.st1{font-size:22.3976px;}
	.st2{fill:none;stroke:#000000;stroke-width:2;stroke-miterlimit:10;}
	.st3{font-size:11.442px;}
	.st4{font-size:8.7624px;}
	.st5{fill:none;stroke:#000000;stroke-miterlimit:10;}
	.st6{font-size:7.4424px;}
	.st7{fill:none;stroke:#000000;stroke-miterlimit:10;stroke-dasharray:2.014,2.014;}
	.st8{fill:none;stroke:#000000;stroke-miterlimit:10;stroke-dasharray:1.9963,1.9963;}
	.st9{fill:#FF0000;}
	.st10{fill:#0000FF;}
	.st11{font-size:10.4583px;}
	.st12{fill:none;}
	.st13{font-size:11px;}
	.st14{fill:#3FA9F5;}
	.st15{fill:#FF00FF;}
	.st16{fill:#009245;}
	.st17{fill:#29ABE2;}
	.st18{fill:#ED1C24;}
	.st19{font-size:12.7845px;}
	.st20{font-size:9.7905px;}
	.st21{font-size:9px;}
	.st22{font-size:9.8437px;}
	.st23{font-size:4.4936px;}
	.st24{font-size:9.8048px;}
	.st25{fill:none;stroke:#00FFFF;stroke-miterlimit:10;}
	.st26{fill:#00FFFF;}
	.st27{fill:none;stroke:#000000;stroke-width:0.5;stroke-miterlimit:10;}
	.st28{font-size:13.0124px;}
	.st29{font-size:12.7502px;}
	.st30{font-size:9.961px;}
	.st31{font-size:6.5279px;}
	.st32{font-size:7.8638px;}
	.st33{font-size:10.9623px;}
	.st34{font-size:7px;}
	.st35{font-size:11.0437px;}
	.st36{fill:none;stroke:#00B935;stroke-width:0.75;stroke-miterlimit:10;}
	.st37{fill:#00B935;}
	.st38{fill:#7AC943;}
	.st39{font-size:8px;}
	.st40{fill:#22B573;}
	.st41{font-size:15.8062px;}
	.st42{font-size:9.8144px;}
	.st43{font-size:12.7781px;}
	.st44{font-size:7.9342px;}
	.st45{font-size:15.8507px;}
	.st46{font-size:16.4035px;}
	.st47{font-size:6.5614px;}
	.st48{font-size:10.0882px;}
	.st49{fill:none;stroke:#000000;stroke-width:0.5;stroke-miterlimit:10;stroke-dasharray:3.6899,3.6899;}
	.st50{fill:none;stroke:#000000;stroke-width:0.5;stroke-miterlimit:10;stroke-dasharray:4,4;}
	.st51{fill:none;stroke:#000000;stroke-width:0.5;stroke-miterlimit:10;stroke-dasharray:3.8433,3.8433;}
	.st52{display:none;fill:none;stroke:#000000;stroke-miterlimit:10;}
	.st53{display:none;}
	.st54{display:inline;fill:none;stroke:#FF0000;stroke-miterlimit:10;}
	.st55{display:inline;fill:#0000FF;}
	.st56{font-size:4.4861px;}
	.st57{display:inline;}
	.st58{display:none;fill:#FFFFFF;stroke:#000000;stroke-miterlimit:10;}
</style>
<g id="Layer_1">
	<text transform="matrix(1 0 0 1 167.0679 33.8978)"><tspan x="0" y="0" class="st0 st1">Kuka 210 6-DOF Serial Manipulator</tspan><tspan x="32.7" y="26.9" class="st0 st1">Inverse Kinematic Diagrams </tspan><tspan x="98.9" y="53.8" class="st0 st1">Beshari Jamal</tspan></text>
	<g>
		<line class="st2" x1="57" y1="138.2" x2="57" y2="261.2"/>
		<line class="st2" x1="180" y1="261.2" x2="57" y2="261.2"/>
	</g>
	<text transform="matrix(1 0 0 1 53.4949 132.6442)" class="st0 st3">y₁</text>
	<text transform="matrix(1 0 0 1 183.8958 263.8112)"><tspan x="0" y="0" class="st0 st3">x</tspan><tspan x="5.3" y="0" class="st0 st4">₁</tspan></text>
	<line class="st5" x1="57" y1="261.2" x2="165.4" y2="160.5"/>
	<g>
		<g>
			<path class="st5" d="M97.3,261.2c0-8.6-2.8-14.8-7.4-19.8"/>
			<g>
				<path d="M85.5,237.3c2.8,1.2,6.6,2.3,9.5,2.4l-4.5,2.3l-2,4.7C88.2,243.8,86.8,240,85.5,237.3z"/>
			</g>
		</g>
	</g>
	<text transform="matrix(1 0 0 1 154.7253 148.9216)" class="st0 st4">WC</text>
	<text transform="matrix(1 0 0 1 157.4216 274.0651)"><tspan x="0" y="0" class="st0 st4">WC</tspan><tspan x="12.5" y="0" class="st0 st6">x</tspan></text>
	<text transform="matrix(1 0 0 1 34.4451 160.5466)"><tspan x="0" y="0" class="st0 st4">WC</tspan><tspan x="12.5" y="0" class="st0 st6">y</tspan></text>
	<g>
		<g>
			<line class="st5" x1="165.4" y1="160.5" x2="165.4" y2="161.5"/>
			<line class="st7" x1="165.4" y1="163.6" x2="165.4" y2="259.2"/>
			<line class="st5" x1="165.4" y1="260.2" x2="165.4" y2="261.2"/>
		</g>
	</g>
	<g>
		<g>
			<line class="st5" x1="57.6" y1="160.5" x2="58.6" y2="160.5"/>
			<line class="st8" x1="60.6" y1="160.5" x2="163.4" y2="160.5"/>
			<line class="st5" x1="164.4" y1="160.5" x2="165.4" y2="160.5"/>
		</g>
	</g>
	<circle class="st9" cx="165.4" cy="160.5" r="4.4"/>
	<text transform="matrix(1 0 0 1 97.8225 242.2373)" class="st10 st0 st11">q1</text>
	<rect x="264.3" y="116.9" class="st12" width="303.8" height="382.1"/>
	<text transform="matrix(1.0003 0 0 1 264.271 124.6917)" class="st0 st13">After calculating the wrist center WC with respect to base_link (bl)</text>
	<text transform="matrix(1.0003 0 0 1 264.271 137.6917)" class="st10 st0 st13">given Wrist center (</text>
	<text transform="matrix(1.0003 0 0 1 352.8149 137.6917)" class="st0 st13">WCx, WCy, Wz)</text>
	<text transform="matrix(1.0003 0 0 1 264.271 150.6917)" class="st0 st13">and orientation of the gripper (Roll, Pitch, Yaw)</text>
	<text transform="matrix(1.0003 0 0 1 264.271 163.6917)" class="st10 st0 st13">q1</text>
	<text transform="matrix(1.0003 0 0 1 276.1104 163.6917)" class="st0 st13">=</text>
	<text transform="matrix(1.0003 0 0 1 282.6685 163.6917)" class="st10 st0 st13"> </text>
	<text transform="matrix(1.0003 0 0 1 285.001 163.6917)" class="st0 st13">atan(WCy, WCx)</text>
	<text transform="matrix(1.0003 0 0 1 264.271 175.6941)" class="st0 st13">We will use</text>
	<text transform="matrix(1.0003 0 0 1 315.5576 175.6941)" class="st0 st13"> </text>
	<text transform="matrix(1.0003 0 0 1 318.1104 175.6941)" class="st0 st13">the cosine law to get q2 and q3. we need first to find </text>
	<text transform="matrix(1.0003 0 0 1 264.271 188.6941)" class="st0 st13">the sides then the angles.</text>
	<text transform="matrix(1.0003 0 0 1 264.271 201.7224)" class="st14 st0 st13">side_c</text>
	<text transform="matrix(1.0003 0 0 1 293.3535 201.7224)" class="st0 st13">=a2=1.25</text>
	<text transform="matrix(1.0003 0 0 1 264.271 214.7224)" class="st14 st0 st13">side_a</text>
	<text transform="matrix(1.0003 0 0 1 293.7275 214.7224)" class="st0 st13">=d4=1.5</text>
	<text transform="matrix(1.0003 0 0 1 264.271 227.7224)" class="st15 st0 st13">side_b e could be better undestood by looking at fig a</text>
	<text transform="matrix(1.0003 0 0 1 264.271 240.7224)" class="st14 st0 st13">side_b_xy</text>
	<text transform="matrix(1.0003 0 0 1 310.4639 240.7224)" class="st0 st13">=sqrt(</text>
	<text transform="matrix(1.0003 0 0 1 337.9395 240.7224)" class="st14 st0 st13">WC</text>
	<text transform="matrix(0.7041 0 0 0.7039 353.6304 240.7224)" class="st14 st0 st13">x</text>
	<text transform="matrix(1.0003 0 0 1 357.2163 240.7224)" class="st14 st0 st13">2</text>
	<text transform="matrix(1.0003 0 0 1 360.6382 240.7224)" class="st0 st13">+</text>
	<text transform="matrix(1.0003 0 0 1 367.1963 240.7224)" class="st14 st0 st13">WC</text>
	<text transform="matrix(0.7041 0 0 0.7039 382.8872 240.7224)" class="st14 st0 st13">y</text>
	<text transform="matrix(1.0003 0 0 1 386.5352 240.7224)" class="st0 st13">2)-0.35</text>
	<text transform="matrix(1.0003 0 0 1 264.271 253.7224)" class="st15 st0 st13">side_b_xy, is only the x-y plane lenth, so we need to add the z-&gt;</text>
	<text transform="matrix(1.0003 0 0 1 264.271 266.7224)" class="st14 st0 st13">side_b_z</text>
	<text transform="matrix(1.0003 0 0 1 304.896 266.7224)" class="st0 st13">= </text>
	<text transform="matrix(1.0003 0 0 1 313.7866 266.7224)" class="st14 st0 st13">WC</text>
	<text transform="matrix(0.7041 0 0 0.7039 329.4775 266.7224)" class="st14 st0 st13">z</text>
	<text transform="matrix(1.0003 0 0 1 332.7925 266.7224)" class="st0 st13">-0.75  (0.75 is the height  -z direction- up to joint 2)</text>
	<text transform="matrix(1.0003 0 0 1 264.271 279.7224)" class="st15 st0 st13">#Pythagorize both sides</text>
	<text transform="matrix(1.0003 0 0 1 264.271 292.7224)" class="st14 st0 st13">side_b</text>
	<text transform="matrix(1.0003 0 0 1 294.6846 292.7224)" class="st0 st13">=sqrt(</text>
	<text transform="matrix(1.0003 0 0 1 322.1602 292.7224)" class="st14 st0 st13">side_b_xy</text>
	<text transform="matrix(1.0003 0 0 1 368.353 292.7224)" class="st0 st13">2+</text>
	<text transform="matrix(1.0003 0 0 1 378.333 292.7224)" class="st14 st0 st13">side_b_z</text>
	<text transform="matrix(1.0003 0 0 1 418.958 292.7224)" class="st0 st13">2)</text>
	<text transform="matrix(1.0003 0 0 1 264.271 305.7224)" class="st15 st0 st13">now we have all the sides, we can get all thetas accordingly</text>
	<text transform="matrix(1.0003 0 0 1 264.271 318.7224)" class="st15 st0 st13">we can find angle</text>
	<text transform="matrix(1.0003 0 0 1 344.9917 318.7224)" class="st0 st13"> </text>
	<text transform="matrix(1.0003 0 0 1 347.3242 318.7224)" class="st14 st0 st13">a, b, c,</text>
	<text transform="matrix(1.0003 0 0 1 372.8076 318.7224)" class="st15 st0 st13"> and after that using the cosine laws </text>
	<text transform="matrix(1.0003 0 0 1 539.4434 318.7224)" class="st9 st0 st13">(See </text>
	<text transform="matrix(1.0003 0 0 1 264.271 331.7224)" class="st9 st0 st13">code)</text>
	<text transform="matrix(1.0003 0 0 1 264.271 344.7224)" class="st10 st0 st13">q2</text>
	<text transform="matrix(1.0003 0 0 1 276.1104 344.7224)" class="st0 st13">=pi/2 - a - arctan(</text>
	<text transform="matrix(1.0003 0 0 1 354.3213 344.7224)" class="st14 st0 st13">side_b_z</text>
	<text transform="matrix(1.0003 0 0 1 394.9463 344.7224)" class="st0 st13">/</text>
	<text transform="matrix(1.0003 0 0 1 398.7202 344.7224)" class="st14 st0 st13">side_b_xy</text>
	<text transform="matrix(1.0003 0 0 1 444.9131 344.7224)" class="st0 st13">)</text>
	<text transform="matrix(1.0003 0 0 1 264.271 357.7224)" class="st10 st0 st13">q3</text>
	<text transform="matrix(1.0003 0 0 1 276.1104 357.7224)" class="st0 st13">=pi/2 - b </text>
	<text transform="matrix(1.0003 0 0 1 264.271 370.7224)" class="st15 st0 st13">we have</text>
	<text transform="matrix(1.0003 0 0 1 302.4307 370.7224)" class="st16 st0 st13"> </text>
	<text transform="matrix(1.0003 0 0 1 304.7632 370.7224)" class="st14 st0 st13"> R0_6 = R_EE</text>
	<text transform="matrix(1.0003 0 0 1 363.2788 370.7224)" class="st16 st0 st13"> </text>
	<text transform="matrix(1.0003 0 0 1 365.6113 370.7224)" class="st15 st0 st13">(rotation of end gripper)</text>
	<text transform="matrix(1.0003 0 0 1 264.271 383.7224)" class="st15 st0 st13">we can get</text>
	<text transform="matrix(1.0003 0 0 1 314.1934 383.7224)" class="st16 st0 st13"> </text>
	<text transform="matrix(1.0003 0 0 1 316.5259 383.7224)" class="st14 st0 st13">R0_3</text>
	<text transform="matrix(1.0003 0 0 1 339.2368 383.7224)" class="st15 st0 st13"> by subbing our known thetas.</text>
	<text transform="matrix(1.0003 0 0 1 264.271 396.7224)" class="st15 st0 st13">Afterwards </text>
	<text transform="matrix(1.0003 0 0 1 264.271 409.7224)" class="st15 st0 st13">we have</text>
	<text transform="matrix(1.0003 0 0 1 302.4307 409.7224)" class="st17 st0 st13"> R0_3*R3_6=R_EE, </text>
	<text transform="matrix(1.0003 0 0 1 388.1685 409.7224)" class="st15 st0 st13">(multipying both side by inv( </text>
	<text transform="matrix(1.0003 0 0 1 522.5293 409.7224)" class="st17 st0 st13">R0_3</text>
	<text transform="matrix(1.0003 0 0 1 545.2402 409.7224)" class="st15 st0 st13">))</text>
	<text transform="matrix(1.0003 0 0 1 264.271 422.7224)" class="st14 st0 st13">R3_6</text>
	<text transform="matrix(1.0003 0 0 1 286.9819 422.7224)" class="st0 st13">=</text>
	<text transform="matrix(1.0003 0 0 1 293.54 422.7224)" class="st14 st0 st13">R_EE</text>
	<text transform="matrix(1.0003 0 0 1 315.7891 422.7224)" class="st0 st13">*inv(</text>
	<text transform="matrix(1.0003 0 0 1 337.4546 422.7224)" class="st14 st0 st13">R0_3</text>
	<text transform="matrix(1.0003 0 0 1 360.1655 422.7224)" class="st0 st13">)</text>
	<text transform="matrix(1.0003 0 0 1 363.2905 422.7224)" class="st18 st0 st13"> </text>
	<text transform="matrix(1.0003 0 0 1 365.623 422.7224)" class="st0 st13">=</text>
	<text transform="matrix(1.0003 0 0 1 372.1812 422.7224)" class="st14 st0 st13">R_EE</text>
	<text transform="matrix(1.0003 0 0 1 394.4302 422.7224)" class="st0 st13">*inv(</text>
	<text transform="matrix(1.0003 0 0 1 416.0957 422.7224)" class="st14 st0 st13">R0_3</text>
	<text transform="matrix(1.0003 0 0 1 438.8066 422.7224)" class="st0 st13">)</text>
	<text transform="matrix(1.0003 0 0 1 264.271 435.7224)" class="st0 st13">after we have R3_6. we can find the thetas:</text>
	<text transform="matrix(1.0003 0 0 1 264.271 448.7224)" class="st0 st13">(see code please)</text>
	<line class="st2" x1="51.3" y1="405.7" x2="51.3" y2="543.1"/>
	<line class="st2" x1="171.8" y1="545.1" x2="51.3" y2="543.2"/>
	<text transform="matrix(0.8902 0 0 1 47.6797 399.4766)" class="st0 st19">z₂</text>
	<text transform="matrix(0.8902 0 0 1 182.979 545.1104)"><tspan x="0" y="0" class="st0 st19">x</tspan><tspan x="5.9" y="0" class="st0 st20">₂</tspan></text>
	<rect x="29" y="114.7" class="st5" width="181.3" height="171"/>
	<rect x="29" y="356.1" class="st5" width="181.3" height="210.2"/>
	<text transform="matrix(1 0 0 1 56.9588 298.6664)" class="st0 st21">Fig tA:Top view of the Kuka 210 </text>
	<text transform="matrix(1 0 0 1 26.9588 586.4996)" class="st0 st21">Fig B: Side View of Kuka 210</text>
	<line class="st5" x1="51.3" y1="543.1" x2="187" y2="459.2"/>
	<line class="st5" x1="109.7" y1="442.3" x2="187" y2="459.2"/>
	<line class="st5" x1="51.3" y1="543.1" x2="109.7" y2="442.3"/>
	<text transform="matrix(0.8902 0 0 1 172.7959 475.8887)"><tspan x="0" y="0" class="st0 st22">WC[x ,y z]</tspan><tspan x="0" y="6.7" class="st0 st23">w,r,t base link</tspan></text>
	<text transform="matrix(0.8766 0.1956 -0.1741 0.9847 98.9295 429.9191)" class="st0 st24">J₃</text>
	<ellipse class="st9" cx="187" cy="459.2" rx="4.4" ry="5"/>
	<ellipse class="st10" cx="109.1" cy="441.9" rx="4.4" ry="5"/>
	<line class="st25" x1="51.3" y1="543.1" x2="89.5" y2="569.8"/>
	<polygon class="st26" points="57.9,547.4 50.9,542.8 54.9,534.9 62,539.5 	"/>
	<polygon class="st26" points="111,453 105.8,449.7 108.8,443.9 113.9,447.2 	"/>
	<g>
		<g>
			<path class="st27" d="M61.7,516c-0.5-5.8-2.6-7.7-5.8-9.8"/>
			<g>
				<path d="M53.5,504.5c1.5,0.4,3.4,0.6,4.9,0.5l-2.1,1.5l-0.6,2.4C55.3,507.4,54.3,505.7,53.5,504.5z"/>
			</g>
		</g>
	</g>
	<text transform="matrix(0.8864 -0.1038 9.243000e-02 0.9957 64.3974 493.325)" class="st10 st0 st28">q2</text>
	<g>
		<g>
			<path class="st27" d="M66.8,551.5c0.7-1.6,0.8-3.1,0.3-4.6"/>
			<g>
				<path d="M65.9,544.1c1,1.1,2.6,2.4,3.9,3l-2.5,0.2l-1.8,1.7C65.8,547.6,66,545.6,65.9,544.1z"/>
			</g>
		</g>
	</g>
	<g>
		<g>
			<path class="st27" d="M127,454.7c0.3-1.9-0.3-3.8-1.4-5.7"/>
			<g>
				<path d="M127,454.5c-0.4-0.6-1.3-1.2-2-1.4c0.7,1,1.3,2.1,1.4,3.3c0.7-1,1.8-1.6,2.9-2C128.7,454.2,127.7,454.1,127,454.5z"/>
			</g>
		</g>
	</g>
	<g>
		<g>
			<path class="st27" d="M113.5,403.6c2.2,0.1,9.9-1.9,12.8,2.5"/>
			<g>
				<path d="M127.4,408.9c-1-1.1-2.5-2.4-3.8-3.1l2.5-0.1l1.9-1.7C127.6,405.4,127.4,407.4,127.4,408.9z"/>
			</g>
		</g>
	</g>
	<text transform="matrix(0.8122 0.4597 -0.4092 0.9124 73.3071 553.3087)" class="st10 st0 st29">q2</text>
	<text transform="matrix(-0.2815 -1.0657 0.9487 -0.3163 121.1719 378.7929)" class="st10 st0 st30">q3</text>
	<text transform="matrix(0.1036 1.1158 -0.9932 0.1164 129.3721 449.5528)" class="st10 st0 st31">q3</text>
	<circle class="st10" cx="99" cy="222.2" r="4.4"/>
	<text transform="matrix(0.8902 0 0 1 37.8335 532.9531)" class="st0 st32">J2</text>
	<text transform="matrix(1 0 0 1 91.3631 212.1755)" class="st0 st33">J2</text>
	<text transform="matrix(1 0 0 1 37.8335 271)" class="st0 st34">Base Link (BL)</text>
	<text transform="matrix(1 0 0 1 64.9683 237.3333)" class="st0 st35">a1</text>
	<g>
		<g>
			<line class="st36" x1="155.5" y1="165.8" x2="99.7" y2="216.3"/>
			<g>
				
					<rect x="155.1" y="163.4" transform="matrix(0.7413 -0.6711 0.6711 0.7413 -71.0771 147.2622)" class="st37" width="0.8" height="4.9"/>
			</g>
			<g>
				
					<rect x="99.4" y="213.9" transform="matrix(0.7413 -0.6711 0.6711 0.7413 -119.3863 122.8935)" class="st37" width="0.8" height="4.9"/>
			</g>
		</g>
	</g>
	<text transform="matrix(0.7309 -0.6825 0.6825 0.7309 104.0542 206.8512)" class="st38 st0 st39">Side_b_xy</text>
	<text transform="matrix(0.7792 0.5432 -0.4836 0.8753 127.6454 433.9652)"><tspan x="0" y="0" class="st40 st0 st41">A=</tspan><tspan x="19.1" y="0" class="st9 st0 st42">d4</tspan></text>
	<text transform="matrix(0.4901 -0.9378 0.8348 0.5505 88.7493 462.3446)"><tspan x="0" y="0" class="st40 st0 st43">C=</tspan><tspan x="15.1" y="0" class="st9 st0 st44">a₂</tspan></text>
	<text transform="matrix(0.7906 -0.5161 0.4594 0.8882 116.6417 499.1281)"><tspan x="0" y="0" class="st40 st0 st45">B=</tspan><tspan x="18.1" y="0" class="st0 st46">r</tspan><tspan x="23.4" y="0" class="st0 st47">2-wc</tspan></text>
	<text transform="matrix(0.8904 0 0 1 69.1348 524.0361)" class="st0 st48">a</text>
	<text transform="matrix(0.8904 0 0 1 111.5063 453.0332)" class="st0 st48">b</text>
	<text transform="matrix(0.8904 0 0 1 170.6025 462.0508)" class="st0 st48">c</text>
	<g>
		<g>
			<line class="st27" x1="106.8" y1="441.2" x2="108.3" y2="442.5"/>
			<line class="st49" x1="111.1" y1="444.9" x2="137.7" y2="467.8"/>
			<line class="st27" x1="139.1" y1="469" x2="140.6" y2="470.3"/>
		</g>
	</g>
	<line class="st50" x1="106.8" y1="441.2" x2="167.6" y2="454.8"/>
	<g>
		<g>
			<line class="st27" x1="109.7" y1="442.3" x2="110.7" y2="440.6"/>
			<line class="st51" x1="112.6" y1="437.3" x2="154.2" y2="365.9"/>
			<line class="st27" x1="155.2" y1="364.2" x2="156.2" y2="362.5"/>
		</g>
	</g>
	<line class="st50" x1="109.5" y1="442.9" x2="110.2" y2="373.2"/>
	<rect x="42.4" y="636" class="st52" width="14" height="53.5"/>
	<circle class="st52" cx="101.8" cy="661" r="13.5"/>
	<polyline class="st52" points="135.8,750.3 123.3,729.5 152.5,712 164.9,732.8 	"/>
	<g class="st53">
		<line class="st54" x1="94.5" y1="664.7" x2="94.5" y2="621.1"/>
		<line class="st54" x1="118.5" y1="644.9" x2="94.5" y2="664.7"/>
		<line class="st54" x1="129.1" y1="664.7" x2="94.5" y2="664.7"/>
		<text transform="matrix(1 0 0 1 92.6685 616.2539)" class="st55 st0 st56">X4,X5,X6</text>
		<text transform="matrix(1 0 0 1 121.2666 640.9277)" class="st55 st0 st56">Z5</text>
		<text transform="matrix(1 0 0 1 131.9209 662.6104)" class="st55 st0 st56">Z4, Z6</text>
	</g>
	<line class="st52" x1="126.5" y1="701.6" x2="139.6" y2="723.6"/>
	<line class="st52" x1="101.8" y1="661" x2="126.3" y2="702"/>
	
		<rect x="119" y="674.6" transform="matrix(0.513 0.8584 -0.8584 0.513 661.5473 233.1612)" class="st58" width="12.7" height="50"/>
	<line class="st52" x1="101.8" y1="661" x2="49.4" y2="662.8"/>
	<g class="st53">
		<g class="st57">
			<path class="st5" d="M49.4,622c-26.7,38.5-13.2,66.8-4.9,77.9"/>
			<g>
				<polygon points="49.4,705 39.7,700.5 44.3,699.4 45.6,694.9 				"/>
			</g>
		</g>
	</g>
	<g class="st53">
		<g class="st57">
			<path class="st5" d="M66.1,642.7c54.5-45.6,63.1-0.6,63.9,17.8"/>
			<g>
				<polygon points="129.8,667.5 125.9,657.5 129.9,659.9 134.1,657.7 				"/>
			</g>
		</g>
	</g>
	<g class="st53">
		<g class="st57">
			<path class="st5" d="M162.7,679.9c-46.6-4.8-64.9,20.6-70.6,33.2"/>
			<g>
				<polygon points="89.9,719.9 89.2,709.2 92.3,712.7 96.9,711.7 				"/>
			</g>
		</g>
	</g>
	<g class="st53">
		<line class="st54" x1="94.5" y1="664.7" x2="94.5" y2="621.1"/>
		<line class="st54" x1="118.5" y1="644.9" x2="94.5" y2="664.7"/>
		<line class="st54" x1="129.1" y1="664.7" x2="94.5" y2="664.7"/>
		<text transform="matrix(1 0 0 1 92.6685 616.2539)" class="st55 st0 st56">X4,X5,X6</text>
		<text transform="matrix(1 0 0 1 121.2666 640.9277)" class="st55 st0 st56">Z5</text>
		<text transform="matrix(1 0 0 1 131.9209 662.6104)" class="st55 st0 st56">Z4, Z6</text>
	</g>
	<g class="st53">
		<line class="st54" x1="136.9" y1="721" x2="168.3" y2="706.3"/>
		<line class="st54" x1="165.7" y1="732.7" x2="136.9" y2="721"/>
		<line class="st54" x1="153.4" y1="751.4" x2="136.9" y2="721"/>
	</g>
</g>
<g id="Layer_2">
</g>
</svg>
